<mxfile host="65bd71144e">
    <diagram id="mOqeaVF4LThruTy5mDOF" name="Page-1">
        <mxGraphModel dx="1226" dy="1262" grid="1" gridSize="10" guides="1" tooltips="1" connect="1" arrows="1" fold="1" page="0" pageScale="1" pageWidth="850" pageHeight="1100" math="0" shadow="0">
            <root>
                <mxCell id="0"/>
                <mxCell id="1" parent="0"/>
                <mxCell id="40" value="Vertical Container" style="swimlane;whiteSpace=wrap;html=1;" vertex="1" parent="1">
                    <mxGeometry x="430" y="-270" width="1070" height="640" as="geometry"/>
                </mxCell>
                <mxCell id="37" value="Produtor Logado" style="shape=umlLifeline;perimeter=lifelinePerimeter;whiteSpace=wrap;html=1;container=1;collapsible=0;recursiveResize=0;outlineConnect=0;" vertex="1" parent="40">
                    <mxGeometry x="130" y="70" width="100" height="300" as="geometry"/>
                </mxCell>
                <mxCell id="38" value="" style="html=1;points=[];perimeter=orthogonalPerimeter;" vertex="1" parent="37">
                    <mxGeometry x="45" y="90" width="10" height="180" as="geometry"/>
                </mxCell>
                <mxCell id="35" value="ProductService" style="shape=umlLifeline;perimeter=lifelinePerimeter;whiteSpace=wrap;html=1;container=1;collapsible=0;recursiveResize=0;outlineConnect=0;" vertex="1" parent="40">
                    <mxGeometry x="370" y="70" width="100" height="300" as="geometry"/>
                </mxCell>
                <mxCell id="36" value="" style="html=1;points=[];perimeter=orthogonalPerimeter;fillColor=#808080;" vertex="1" parent="35">
                    <mxGeometry x="45" y="90" width="10" height="100" as="geometry"/>
                </mxCell>
                <mxCell id="44" value="" style="html=1;points=[];perimeter=orthogonalPerimeter;fillColor=#808080;" vertex="1" parent="35">
                    <mxGeometry x="55" y="100" width="10" height="60" as="geometry"/>
                </mxCell>
                <mxCell id="42" value="" style="endArrow=block;startArrow=none;endFill=0;startFill=0;endSize=8;html=1;verticalAlign=bottom;dashed=1;labelBackgroundColor=none;" edge="1" parent="40" target="35">
                    <mxGeometry width="160" relative="1" as="geometry">
                        <mxPoint x="190" y="180" as="sourcePoint"/>
                        <mxPoint x="350" y="180" as="targetPoint"/>
                    </mxGeometry>
                </mxCell>
                <mxCell id="43" value="create_product()" style="edgeLabel;html=1;align=center;verticalAlign=middle;resizable=0;points=[];" vertex="1" connectable="0" parent="42">
                    <mxGeometry x="-0.2767" y="1" relative="1" as="geometry">
                        <mxPoint x="17" as="offset"/>
                    </mxGeometry>
                </mxCell>
            </root>
        </mxGraphModel>
    </diagram>
</mxfile>